
<?xml version="1.0" standalone="no"?>
<!DOCTYPE svg PUBLIC "-//W3C//DTD SVG 20010904//EN"
 "http://www.w3.org/TR/2001/REC-SVG-20010904/DTD/svg10.dtd">
<svg version="1.0" xmlns="http://www.w3.org/2000/svg"
 width="1080.000000pt" height="1080.000000pt" viewBox="0 0 1080.000000 1080.000000"
 preserveAspectRatio="xMidYMid meet">

<g transform="translate(0.000000,1080.000000) scale(0.100000,-0.100000)"
fill="#000000" stroke="none">
<path d="M0 5400 l0 -5400 5400 0 5400 0 0 5400 0 5400 -5400 0 -5400 0 0
-5400z m10560 -15 l0 -5145 -5145 0 -5145 0 0 5145 0 5145 5145 0 5145 0 0
-5145z"/>

<path d="M5045 10513 c-547 -38 -1115 -174 -1625 -390 -1137 -480 -2052 -1339
-2604 -2443 -302 -605 -479 -1251 -527 -1919 -15 -216 -6 -748 16 -936 98
-838 368 -1583 822 -2270 202 -307 384 -528 657 -800 428 -428 824 -711 1366
-979 709 -351 1471 -526 2279 -526 1195 1 2350 421 3270 1189 258 215 454 411
666 666 1189 1429 1511 3390 842 5135 -202 526 -517 1051 -905 1505 -122 143
-436 453 -582 574 -827 690 -1804 1093 -2875 1186 -159 14 -647 19 -800 8z
m587 -1256 c221 -71 403 -238 490 -450 143 -351 19 -749 -300 -958 -134 -88
-259 -124 -427 -123 -184 1 -328 48 -466 152 -311 236 -406 650 -229 992 96
184 264 322 470 388 93 30 101 31 250 27 110 -2 149 -8 212 -28z m1164 -1644
c-3 -21 -13 -108 -22 -193 -9 -85 -17 -157 -19 -159 -7 -7 -420 160 -431 175
-10 12 -129 14 -910 12 l-899 -3 -234 -93 c-129 -51 -236 -90 -239 -87 -6 6
-40 306 -41 358 l-1 27 1401 0 1401 0 -6 -37z m131 -514 c370 -146 691 -278
713 -293 85 -56 138 -171 126 -273 -14 -121 -109 -231 -221 -257 -16 -4 -180
-87 -363 -184 l-333 -177 697 -3 697 -2 -5 -98 c-15 -284 -236 -611 -448 -662
l-50 -12 -2 -1556 -3 -1557 -26 -56 c-70 -149 -212 -225 -370 -197 -117 20
-227 121 -259 238 -6 22 -10 605 -10 1578 l0 1542 -268 0 -269 0 -12 -132
c-15 -162 -16 -168 -45 -168 -16 0 -32 14 -54 48 -17 26 -47 63 -66 81 -34 33
-36 38 -36 103 l0 68 -45 0 -45 0 0 -87 0 -88 55 -48 c37 -33 65 -69 87 -115
l33 -67 3 -1264 c2 -1136 1 -1270 -14 -1320 -36 -124 -115 -237 -212 -301
-121 -80 -296 -93 -427 -30 -86 41 -177 130 -222 216 -62 118 -63 122 -63 840
0 358 -3 820 -7 1027 l-6 377 -65 0 -64 0 3 -1037 c4 -984 3 -1041 -14 -1098
-29 -92 -62 -149 -128 -219 -61 -65 -125 -110 -182 -128 -206 -62 -410 13
-528 195 -38 58 -73 150 -83 217 -2 19 -6 595 -7 1280 l-3 1245 23 50 c30 66
81 127 136 161 l45 29 0 83 0 82 -45 0 -45 0 0 -59 c0 -57 -1 -60 -43 -94 -24
-20 -61 -61 -82 -91 -27 -39 -45 -56 -60 -56 -21 0 -23 7 -34 113 -6 61 -14
129 -17 150 l-6 37 -264 0 -264 0 -2 -1552 -3 -1553 -26 -56 c-70 -148 -214
-225 -370 -197 -117 20 -227 121 -259 238 -6 22 -10 606 -10 1581 l0 1547 -37
7 c-21 4 -65 21 -97 38 -194 103 -354 377 -373 640 l-6 87 818 0 817 0 -7 27
c-4 16 -8 29 -9 30 -1 1 -208 68 -461 149 -253 81 -481 157 -506 170 -57 29
-114 91 -146 161 -22 48 -25 65 -21 132 3 50 12 89 26 116 27 53 97 120 147
141 105 44 1267 499 1315 515 52 17 104 18 895 16 l840 -2 672 -266z m-2627
-3321 c1 -1361 4 -1581 24 -1653 27 -99 83 -201 147 -270 33 -35 56 -65 52
-68 -4 -3 -26 -10 -47 -16 -81 -22 -177 22 -216 99 -20 38 -20 61 -20 1140 l0
1100 -78 0 c-138 0 -226 49 -278 156 -23 46 -28 71 -28 133 -1 92 22 145 88
210 62 60 124 80 254 81 l102 0 0 -912z m2476 884 c64 -33 102 -70 132 -126
23 -44 27 -63 27 -141 0 -103 -16 -144 -82 -207 -59 -57 -114 -78 -210 -78
l-83 0 0 -1092 c0 -1043 -1 -1095 -19 -1133 -38 -82 -133 -134 -214 -115 -61
13 -61 18 2 85 38 41 75 95 101 147 76 154 72 84 68 1462 l-4 1228 120 -4 c98
-4 129 -8 162 -26z"/>
<path d="M4361 6652 l-214 -86 49 -17 c70 -25 79 -24 189 21 54 22 102 40 107
40 4 0 8 -36 8 -79 l0 -79 45 -15 45 -16 0 160 c0 87 -3 159 -7 158 -5 -1
-104 -40 -222 -87z"/>

<path d="M6230 6480 c0 -137 2 -250 5 -250 3 0 24 9 45 20 l40 20 0 165 c0 91
3 165 8 165 4 0 84 -31 178 -68 l171 -68 52 25 51 25 -272 108 c-150 59 -274
108 -275 108 -2 0 -3 -112 -3 -250z"/>
<path d="M4836 6238 c3 -13 8 -25 10 -27 1 -2 139 -32 306 -67 l302 -64 35 36
c56 57 105 78 186 79 60 0 80 -5 145 -36 95 -46 143 -93 159 -154 6 -25 9 -50
6 -56 -4 -5 0 -9 8 -9 8 0 18 19 25 48 6 26 14 55 17 64 10 25 -68 104 -135
138 -85 43 -165 63 -225 57 -69 -7 -145 -41 -184 -81 l-31 -32 -298 62 c-163
35 -305 63 -315 64 -14 0 -17 -5 -11 -22z"/>
<path d="M4829 6009 c-10 -21 -23 -40 -29 -44 -34 -21 15 -25 324 -25 330 0
334 0 329 20 -7 25 -10 26 -208 45 -88 9 -213 22 -278 29 l-119 12 -19 -37z"/>
<path d="M4500 5709 c0 -44 98 -163 193 -234 176 -133 402 -195 712 -195 379
0 705 124 860 327 l37 48 -39 6 c-37 7 -40 4 -119 -71 -160 -153 -348 -225
-649 -249 -199 -16 -431 8 -577 58 -133 46 -263 138 -349 248 -29 38 -56 72
-61 78 -4 5 -8 -2 -8 -16z"/>



</g>
</svg>
