<?xml version="1.0" standalone="no"?>
<!DOCTYPE svg PUBLIC "-//W3C//DTD SVG 20010904//EN"
 "http://www.w3.org/TR/2001/REC-SVG-20010904/DTD/svg10.dtd">
<svg version="1.0" xmlns="http://www.w3.org/2000/svg"
 width="500.000000pt" height="500.000000pt" viewBox="0 0 500.000000 500.000000"
 preserveAspectRatio="xMidYMid meet">

<!-- Delete this to get rid of spinnning shit-->

<g transform="translate(180.000000,200.000000) scale(1,-0.100000)"
fill="#000000" stroke="none">
<g transform=" matrix(0.666, -0.6, 0.25, 0.433, 80, 80)">
<path d="M 0,70 A 65,70 0 0,0 65,0 5,7 0 0,1 75,0 50,70 0 0,1 0,70Z" fill="#FFF">
      <animateTransform attributeName="transform" type="rotate" from="360 0 0" to="0 0 0" dur="1s" repeatCount="indefinite" />
    </path>
    </g>
</g>    

<g transform="translate(0.000000,500.000000) scale(0.100000,-0.100000)"
fill="#FFF" stroke="none">


  
<path d="M2400 4280 c-254 -31 -499 -123 -720 -271 -111 -74 -292 -249 -373
-360 -161 -220 -264 -478 -297 -743 -17 -135 -8 -392 19 -514 172 -782 870
-1310 1655 -1251 190 14 307 40 469 104 493 193 855 624 968 1152 33 152 38
411 10 570 -58 342 -218 643 -469 884 -219 210 -476 346 -777 409 -115 24
-365 34 -485 20z m235 -381 c99 -25 182 -141 173 -243 -8 -97 -55 -161 -147
-204 -92 -42 -191 -22 -265 54 -89 92 -86 241 7 332 66 65 139 84 232 61z
m359 -546 c-4 -32 -8 -60 -10 -62 -3 -4 -67 20 -120 45 -26 13 -79 15 -300 12
l-269 -3 -68 -29 c-37 -16 -69 -27 -71 -25 -2 2 -6 30 -10 62 l-6 57 430 0
430 0 -6 -57z m33 -114 c115 -44 218 -87 231 -95 32 -21 45 -60 32 -99 -9 -27
-27 -40 -133 -95 -67 -34 -126 -67 -132 -71 -5 -5 82 -9 203 -9 l212 0 0 -32
c0 -69 -88 -198 -135 -198 -13 0 -15 -64 -15 -472 0 -430 -2 -476 -18 -508
-34 -68 -121 -77 -166 -17 -21 28 -21 39 -24 508 l-3 479 -78 0 c-86 0 -91 -4
-91 -61 0 -16 -2 -29 -5 -29 -12 0 -54 56 -55 73 0 9 -7 17 -15 17 -24 0 -17
-41 13 -73 l27 -28 3 -401 c3 -394 2 -401 -19 -445 -23 -48 -77 -82 -130 -83
-35 0 -88 37 -113 80 -20 33 -21 53 -24 363 -3 316 -4 327 -23 327 -18 0 -19
-9 -19 -323 0 -318 0 -325 -23 -367 -53 -101 -169 -105 -241 -7 -20 28 -21 40
-24 438 l-3 410 31 30 c32 32 41 79 15 79 -8 0 -15 -8 -15 -17 -1 -17 -43 -73
-55 -73 -3 0 -5 13 -5 29 0 57 -5 61 -91 61 l-78 0 -3 -479 c-3 -469 -3 -480
-24 -508 -45 -60 -132 -51 -166 17 -16 32 -18 78 -18 508 0 408 -2 472 -15
472 -47 0 -135 129 -135 198 l0 32 250 0 c150 0 250 4 250 9 0 6 -64 31 -142
56 -176 56 -183 60 -203 101 -18 38 -12 74 15 99 11 10 115 55 232 101 l213
83 252 1 252 0 208 -81z m-797 -1116 c0 -229 4 -393 10 -415 6 -21 22 -50 35
-66 13 -16 22 -32 18 -36 -11 -11 -36 -6 -55 11 -17 15 -18 40 -18 360 l0 343
-25 0 c-33 0 -81 25 -89 45 -26 70 18 132 97 134 l27 1 0 -377z m779 351 c31
-26 41 -68 25 -109 -8 -20 -56 -45 -89 -45 l-25 0 0 -342 c0 -304 -2 -343 -17
-360 -16 -18 -53 -25 -53 -9 0 4 8 19 18 32 39 51 42 80 42 475 l0 384 34 0
c22 0 45 -9 65 -26z"/>
<path d="M2252 3102 c-50 -20 -60 -27 -46 -35 10 -6 25 -5 41 2 34 16 41 14
45 -11 2 -12 9 -23 16 -26 8 -2 12 11 12 47 0 28 -1 51 -2 50 -2 0 -31 -13
-66 -27z"/>
<path d="M2820 3044 c0 -56 3 -75 13 -72 7 3 13 26 15 56 2 29 7 52 12 52 4 0
29 -9 55 -20 32 -14 52 -17 63 -11 15 8 14 11 -8 19 -14 6 -49 19 -78 31 -29
12 -57 21 -62 21 -6 0 -10 -34 -10 -76z"/>
<path d="M2400 2971 c0 -5 26 -15 58 -21 31 -7 73 -15 93 -19 28 -6 40 -4 58
10 13 11 33 19 45 19 31 0 87 -38 94 -62 5 -21 6 -21 12 -2 11 29 -5 51 -55
69 -43 17 -46 17 -85 -3 -39 -19 -41 -19 -117 -1 -90 21 -103 22 -103 10z"/>
<path d="M2389 2898 c-9 -17 -3 -18 98 -18 127 0 127 14 0 27 -80 8 -89 7 -98
-9z"/>

<path d="M2312 2778 c13 -17 48 -45 77 -61 45 -25 66 -31 144 -35 52 -2 117 1
149 7 59 13 142 60 152 88 11 29 -3 26 -40 -7 -56 -49 -98 -62 -210 -68 -124
-6 -186 12 -246 69 -50 47 -59 50 -26 7z"/>
<path d="M1540 930 c0 -11 7 -20 15 -20 8 0 15 9 15 20 0 11 -7 20 -15 20 -8
0 -15 -9 -15 -20z"/>
<path d="M1610 930 c0 -11 7 -20 15 -20 8 0 15 9 15 20 0 11 -7 20 -15 20 -8
0 -15 -9 -15 -20z"/>
<path d="M1672 933 c5 -26 38 -29 38 -4 0 15 -6 21 -21 21 -14 0 -19 -5 -17
-17z"/>
<path d="M1882 933 c2 -10 10 -18 18 -18 8 0 16 8 18 18 2 12 -3 17 -18 17
-15 0 -20 -5 -18 -17z"/>
<path d="M1950 929 c0 -14 5 -19 17 -17 26 5 29 38 4 38 -15 0 -21 -6 -21 -21z"/>
<path d="M2020 930 c0 -11 7 -20 15 -20 8 0 15 9 15 20 0 11 -7 20 -15 20 -8
0 -15 -9 -15 -20z"/>
<path d="M2230 930 c0 -11 7 -20 15 -20 8 0 15 9 15 20 0 11 -7 20 -15 20 -8
0 -15 -9 -15 -20z"/>
<path d="M2292 933 c2 -10 10 -18 18 -18 8 0 16 8 18 18 2 12 -3 17 -18 17
-15 0 -20 -5 -18 -17z"/>
<path d="M2362 933 c2 -10 10 -18 18 -18 8 0 16 8 18 18 2 12 -3 17 -18 17
-15 0 -20 -5 -18 -17z"/>
<path d="M2570 930 c0 -11 7 -20 15 -20 8 0 15 9 15 20 0 11 -7 20 -15 20 -8
0 -15 -9 -15 -20z"/>
<path d="M2640 930 c0 -11 7 -20 15 -20 8 0 15 9 15 20 0 11 -7 20 -15 20 -8
0 -15 -9 -15 -20z"/>
<path d="M2702 933 c5 -26 38 -29 38 -4 0 15 -6 21 -21 21 -14 0 -19 -5 -17
-17z"/>



<path d="M2980 929 c0 -14 5 -19 17 -17 26 5 29 38 4 38 -15 0 -21 -6 -21 -21z"/>
<path d="M3050 930 c0 -11 7 -20 15 -20 8 0 15 9 15 20 0 11 -7 20 -15 20 -8
0 -15 -9 -15 -20z"/>
<path d="M3120 930 c0 -11 7 -20 15 -20 8 0 15 9 15 20 0 11 -7 20 -15 20 -8
0 -15 -9 -15 -20z"/>
<path d="M3182 933 c5 -26 38 -29 38 -4 0 15 -6 21 -21 21 -14 0 -19 -5 -17
-17z"/>
<path d="M3322 933 c2 -10 10 -18 18 -18 8 0 16 8 18 18 2 12 -3 17 -18 17
-15 0 -20 -5 -18 -17z"/>
<path d="M3392 933 c2 -10 10 -18 18 -18 8 0 16 8 18 18 2 12 -3 17 -18 17
-15 0 -20 -5 -18 -17z"/>
<path d="M3460 929 c0 -14 5 -19 17 -17 26 5 29 38 4 38 -15 0 -21 -6 -21 -21z"/>
<path d="M3530 930 c0 -11 7 -20 15 -20 8 0 15 9 15 20 0 11 -7 20 -15 20 -8
0 -15 -9 -15 -20z"/>
<path d="M1470 859 c0 -14 5 -19 17 -17 26 5 29 38 4 38 -15 0 -21 -6 -21 -21z"/>
<path d="M1672 863 c5 -26 38 -29 38 -4 0 15 -6 21 -21 21 -14 0 -19 -5 -17
-17z"/>


<path d="M1812 863 c2 -10 10 -18 18 -18 8 0 16 8 18 18 2 12 -3 17 -18 17
-15 0 -20 -5 -18 -17z"/>
<path d="M2020 860 c0 -11 7 -20 15 -20 8 0 15 9 15 20 0 11 -7 20 -15 20 -8
0 -15 -9 -15 -20z"/>
<path d="M2160 860 c0 -11 7 -20 15 -20 8 0 15 9 15 20 0 11 -7 20 -15 20 -8
0 -15 -9 -15 -20z"/>
<path d="M2500 859 c0 -14 5 -19 17 -17 26 5 29 38 4 38 -15 0 -21 -6 -21 -21z"/>
<path d="M2702 863 c5 -26 38 -29 38 -4 0 15 -6 21 -21 21 -14 0 -19 -5 -17
-17z"/>
<path d="M3050 860 c0 -11 7 -20 15 -20 8 0 15 9 15 20 0 11 -7 20 -15 20 -8
0 -15 -9 -15 -20z"/>
<path d="M3392 863 c2 -10 10 -18 18 -18 8 0 16 8 18 18 2 12 -3 17 -18 17
-15 0 -20 -5 -18 -17z"/>
<path d="M1470 789 c0 -14 5 -19 17 -17 26 5 29 38 4 38 -15 0 -21 -6 -21 -21z"/>
<path d="M1540 790 c0 -11 7 -20 15 -20 8 0 15 9 15 20 0 11 -7 20 -15 20 -8
0 -15 -9 -15 -20z"/>
<path d="M1610 790 c0 -11 7 -20 15 -20 8 0 15 9 15 20 0 11 -7 20 -15 20 -8
0 -15 -9 -15 -20z"/>

<path d="M1812 793 c2 -10 10 -18 18 -18 8 0 16 8 18 18 2 12 -3 17 -18 17
-15 0 -20 -5 -18 -17z"/>
<path d="M1882 793 c2 -10 10 -18 18 -18 8 0 16 8 18 18 2 12 -3 17 -18 17
-15 0 -20 -5 -18 -17z"/>
<path d="M1950 789 c0 -14 5 -19 17 -17 26 5 29 38 4 38 -15 0 -21 -6 -21 -21z"/>
<path d="M2160 790 c0 -11 7 -20 15 -20 8 0 15 9 15 20 0 11 -7 20 -15 20 -8
0 -15 -9 -15 -20z"/>
<path d="M2230 790 c0 -11 7 -20 15 -20 8 0 15 9 15 20 0 11 -7 20 -15 20 -8
0 -15 -9 -15 -20z"/>
<path d="M2292 793 c2 -10 10 -18 18 -18 8 0 16 8 18 18 2 12 -3 17 -18 17
-15 0 -20 -5 -18 -17z"/>
<path d="M2362 793 c2 -10 10 -18 18 -18 8 0 16 8 18 18 2 12 -3 17 -18 17
-15 0 -20 -5 -18 -17z"/>
<path d="M2500 789 c0 -14 5 -19 17 -17 26 5 29 38 4 38 -15 0 -21 -6 -21 -21z"/>
<path d="M2570 790 c0 -11 7 -20 15 -20 8 0 15 9 15 20 0 11 -7 20 -15 20 -8
0 -15 -9 -15 -20z"/>
<path d="M2640 790 c0 -11 7 -20 15 -20 8 0 15 9 15 20 0 11 -7 20 -15 20 -8
0 -15 -9 -15 -20z"/>
<path d="M3050 790 c0 -11 7 -20 15 -20 8 0 15 9 15 20 0 11 -7 20 -15 20 -8
0 -15 -9 -15 -20z"/>
<path d="M3392 793 c2 -10 10 -18 18 -18 8 0 16 8 18 18 2 12 -3 17 -18 17
-15 0 -20 -5 -18 -17z"/>
<path d="M1470 731 c0 -15 6 -21 21 -21 25 0 22 33 -4 38 -12 2 -17 -3 -17
-17z"/>
<path d="M1817 744 c-14 -15 -6 -34 14 -34 14 0 19 5 17 17 -3 18 -20 27 -31
17z"/>
<path d="M1950 731 c0 -15 6 -21 21 -21 14 0 19 5 17 17 -5 26 -38 29 -38 4z"/>
<path d="M2160 730 c0 -11 7 -20 15 -20 8 0 15 9 15 20 0 11 -7 20 -15 20 -8
0 -15 -9 -15 -20z"/>
<path d="M2500 731 c0 -15 6 -21 21 -21 25 0 22 33 -4 38 -12 2 -17 -3 -17
-17z"/>
<path d="M3050 730 c0 -11 7 -20 15 -20 8 0 15 9 15 20 0 11 -7 20 -15 20 -8
0 -15 -9 -15 -20z"/>
<path d="M3397 744 c-14 -15 -6 -34 14 -34 14 0 19 5 17 17 -3 18 -20 27 -31
17z"/>
<path d="M1470 661 c0 -15 6 -21 21 -21 25 0 22 33 -4 38 -12 2 -17 -3 -17
-17z"/>
<path d="M1817 674 c-14 -15 -6 -34 14 -34 14 0 19 5 17 17 -3 18 -20 27 -31
17z"/>
<path d="M1950 661 c0 -15 6 -21 21 -21 14 0 19 5 17 17 -5 26 -38 29 -38 4z"/>
<path d="M2020 660 c0 -11 7 -20 15 -20 8 0 15 9 15 20 0 11 -7 20 -15 20 -8
0 -15 -9 -15 -20z"/>
<path d="M2160 660 c0 -11 7 -20 15 -20 8 0 15 9 15 20 0 11 -7 20 -15 20 -8
0 -15 -9 -15 -20z"/>
<path d="M2230 660 c0 -11 7 -20 15 -20 8 0 15 9 15 20 0 11 -7 20 -15 20 -8
0 -15 -9 -15 -20z"/>
<path d="M2297 674 c-14 -15 -6 -34 14 -34 14 0 19 5 17 17 -3 18 -20 27 -31
17z"/>
<path d="M2367 674 c-14 -15 -6 -34 14 -34 14 0 19 5 17 17 -3 18 -20 27 -31
17z"/>
<path d="M2500 661 c0 -15 6 -21 21 -21 25 0 22 33 -4 38 -12 2 -17 -3 -17
-17z"/>
<path d="M2980 661 c0 -15 6 -21 21 -21 25 0 22 33 -4 38 -12 2 -17 -3 -17
-17z"/>
<path d="M3050 660 c0 -11 7 -20 15 -20 8 0 15 9 15 20 0 11 -7 20 -15 20 -8
0 -15 -9 -15 -20z"/>
<path d="M3120 660 c0 -11 7 -20 15 -20 8 0 15 9 15 20 0 11 -7 20 -15 20 -8
0 -15 -9 -15 -20z"/>
<path d="M3187 673 c-14 -13 -6 -33 13 -33 13 0 20 7 20 20 0 19 -20 27 -33
13z"/>
<path d="M3397 674 c-14 -15 -6 -34 14 -34 14 0 19 5 17 17 -3 18 -20 27 -31
17z"/>
</g>

</svg>
